<mxfile host="65bd71144e" modified="2020-11-06T03:58:27.404Z" agent="5.0 (X11; Linux x86_64) AppleWebKit/537.36 (KHTML, like Gecko) Code/1.50.1 Chrome/83.0.4103.122 Electron/9.2.1 Safari/537.36" etag="wkFXq4hPonWfDgLuUu9_" version="13.6.5">
    <diagram id="Qwb1rF_dMpi1wpGuuUVu" name="diagram">
        <mxGraphModel dx="1071" dy="771" grid="1" gridSize="10" guides="1" tooltips="1" connect="1" arrows="1" fold="1" page="1" pageScale="1" pageWidth="850" pageHeight="1100" math="0" shadow="0">
            <root>
                <mxCell id="0"/>
                <mxCell id="1" parent="0"/>
                <mxCell id="3" value="" style="rounded=0;whiteSpace=wrap;html=1;" parent="1" vertex="1">
                    <mxGeometry x="55" y="40" width="725" height="860" as="geometry"/>
                </mxCell>
                <mxCell id="G4ZIIX9ekKNboTHv59yJ-3" style="edgeStyle=orthogonalEdgeStyle;rounded=0;orthogonalLoop=1;jettySize=auto;html=1;" parent="1" source="G4ZIIX9ekKNboTHv59yJ-1" target="G4ZIIX9ekKNboTHv59yJ-4" edge="1">
                    <mxGeometry relative="1" as="geometry">
                        <mxPoint x="209.25" y="297" as="targetPoint"/>
                    </mxGeometry>
                </mxCell>
                <mxCell id="G4ZIIX9ekKNboTHv59yJ-8" style="edgeStyle=orthogonalEdgeStyle;rounded=0;orthogonalLoop=1;jettySize=auto;html=1;entryX=0.5;entryY=0;entryDx=0;entryDy=0;" parent="1" source="G4ZIIX9ekKNboTHv59yJ-1" target="G4ZIIX9ekKNboTHv59yJ-2" edge="1">
                    <mxGeometry relative="1" as="geometry"/>
                </mxCell>
                <mxCell id="G4ZIIX9ekKNboTHv59yJ-1" value="&lt;font color=&quot;#030303&quot;&gt;setup&lt;/font&gt;" style="rounded=1;whiteSpace=wrap;html=1;fillColor=#fff2cc;strokeColor=#d6b656;" parent="1" vertex="1">
                    <mxGeometry x="149.25" y="197" width="120" height="60" as="geometry"/>
                </mxCell>
                <mxCell id="313" style="edgeStyle=orthogonalEdgeStyle;rounded=0;orthogonalLoop=1;jettySize=auto;html=1;entryX=0.5;entryY=0;entryDx=0;entryDy=0;" edge="1" parent="1" source="G4ZIIX9ekKNboTHv59yJ-2" target="305">
                    <mxGeometry relative="1" as="geometry"/>
                </mxCell>
                <mxCell id="G4ZIIX9ekKNboTHv59yJ-2" value="&lt;span style=&quot;background-color: rgb(255 , 242 , 204)&quot;&gt;&lt;font color=&quot;#030303&quot;&gt;loop&lt;/font&gt;&lt;/span&gt;" style="rounded=1;whiteSpace=wrap;html=1;fillColor=#fff2cc;strokeColor=#d6b656;" parent="1" vertex="1">
                    <mxGeometry x="149.25" y="327" width="120" height="60" as="geometry"/>
                </mxCell>
                <mxCell id="G4ZIIX9ekKNboTHv59yJ-5" style="edgeStyle=orthogonalEdgeStyle;rounded=0;orthogonalLoop=1;jettySize=auto;html=1;entryX=0.5;entryY=0;entryDx=0;entryDy=0;exitX=0.5;exitY=1;exitDx=0;exitDy=0;" parent="1" source="7" target="G4ZIIX9ekKNboTHv59yJ-2" edge="1">
                    <mxGeometry relative="1" as="geometry">
                        <mxPoint x="720.75" y="247" as="sourcePoint"/>
                        <Array as="points">
                            <mxPoint x="555.75" y="287"/>
                            <mxPoint x="209.75" y="287"/>
                        </Array>
                    </mxGeometry>
                </mxCell>
                <mxCell id="8" value="" style="edgeStyle=orthogonalEdgeStyle;rounded=0;orthogonalLoop=1;jettySize=auto;html=1;" parent="1" source="G4ZIIX9ekKNboTHv59yJ-4" target="7" edge="1">
                    <mxGeometry relative="1" as="geometry"/>
                </mxCell>
                <mxCell id="G4ZIIX9ekKNboTHv59yJ-4" value="Definir 7 pines de salida" style="rounded=0;whiteSpace=wrap;html=1;" parent="1" vertex="1">
                    <mxGeometry x="314.25" y="207" width="120" height="40" as="geometry"/>
                </mxCell>
                <mxCell id="7" value="Iniciar Serial(9600)" style="rounded=0;whiteSpace=wrap;html=1;" parent="1" vertex="1">
                    <mxGeometry x="482.5" y="207" width="146.5" height="40" as="geometry"/>
                </mxCell>
                <mxCell id="G4ZIIX9ekKNboTHv59yJ-12" value="" style="edgeStyle=orthogonalEdgeStyle;rounded=0;orthogonalLoop=1;jettySize=auto;html=1;" parent="1" edge="1">
                    <mxGeometry relative="1" as="geometry">
                        <mxPoint x="298.5" y="440" as="sourcePoint"/>
                    </mxGeometry>
                </mxCell>
                <mxCell id="2" value="&lt;span style=&quot;font-size: 24px&quot;&gt;&lt;b&gt;&lt;u&gt;Encendido de LEDs cálculo vectorial&lt;/u&gt;&lt;/b&gt;&lt;/span&gt;" style="text;html=1;strokeColor=none;fillColor=none;align=center;verticalAlign=middle;whiteSpace=wrap;rounded=0;" parent="1" vertex="1">
                    <mxGeometry x="271" y="70" width="307.5" height="60" as="geometry"/>
                </mxCell>
                <mxCell id="6" value="@okarook" style="text;html=1;strokeColor=none;fillColor=none;align=center;verticalAlign=middle;whiteSpace=wrap;rounded=0;" parent="1" vertex="1">
                    <mxGeometry x="710" y="860" width="50" height="20" as="geometry"/>
                </mxCell>
                <mxCell id="97" style="edgeStyle=orthogonalEdgeStyle;rounded=0;orthogonalLoop=1;jettySize=auto;html=1;entryX=0;entryY=0.5;entryDx=0;entryDy=0;" parent="1" edge="1">
                    <mxGeometry relative="1" as="geometry">
                        <mxPoint x="554" y="797.5" as="sourcePoint"/>
                    </mxGeometry>
                </mxCell>
                <mxCell id="103" style="edgeStyle=orthogonalEdgeStyle;rounded=0;orthogonalLoop=1;jettySize=auto;html=1;entryX=0;entryY=0.5;entryDx=0;entryDy=0;" parent="1" edge="1">
                    <mxGeometry relative="1" as="geometry">
                        <mxPoint x="390" y="797.5" as="sourcePoint"/>
                    </mxGeometry>
                </mxCell>
                <mxCell id="315" style="edgeStyle=orthogonalEdgeStyle;rounded=0;orthogonalLoop=1;jettySize=auto;html=1;entryX=0.5;entryY=0;entryDx=0;entryDy=0;" edge="1" parent="1" source="154" target="156">
                    <mxGeometry relative="1" as="geometry"/>
                </mxCell>
                <mxCell id="154" value="Cálcular vector&lt;br&gt;(0 - 7)" style="whiteSpace=wrap;html=1;rounded=0;" parent="1" vertex="1">
                    <mxGeometry x="149.25" y="527" width="120" height="40" as="geometry"/>
                </mxCell>
                <mxCell id="171" style="edgeStyle=orthogonalEdgeStyle;rounded=0;orthogonalLoop=1;jettySize=auto;html=1;entryX=0;entryY=0.5;entryDx=0;entryDy=0;" parent="1" source="156" target="306" edge="1">
                    <mxGeometry relative="1" as="geometry">
                        <mxPoint x="535.75" y="835" as="targetPoint"/>
                        <Array as="points">
                            <mxPoint x="305.75" y="685"/>
                            <mxPoint x="355.75" y="685"/>
                        </Array>
                    </mxGeometry>
                </mxCell>
                <mxCell id="321" style="edgeStyle=orthogonalEdgeStyle;rounded=0;orthogonalLoop=1;jettySize=auto;html=1;entryX=0.5;entryY=0;entryDx=0;entryDy=0;" edge="1" parent="1" source="156" target="300">
                    <mxGeometry relative="1" as="geometry"/>
                </mxCell>
                <mxCell id="156" value="Iteración menor &lt;br&gt;a siete" style="rhombus;whiteSpace=wrap;html=1;" parent="1" vertex="1">
                    <mxGeometry x="152.25" y="639" width="114" height="95" as="geometry"/>
                </mxCell>
                <mxCell id="157" value="No" style="text;html=1;strokeColor=none;fillColor=none;align=center;verticalAlign=middle;whiteSpace=wrap;rounded=0;" parent="1" vertex="1">
                    <mxGeometry x="216.25" y="734" width="40" height="20" as="geometry"/>
                </mxCell>
                <mxCell id="158" value="Si" style="text;html=1;strokeColor=none;fillColor=none;align=center;verticalAlign=middle;whiteSpace=wrap;rounded=0;" parent="1" vertex="1">
                    <mxGeometry x="256.25" y="657" width="40" height="20" as="geometry"/>
                </mxCell>
                <mxCell id="262" style="edgeStyle=orthogonalEdgeStyle;rounded=0;orthogonalLoop=1;jettySize=auto;html=1;" parent="1" edge="1">
                    <mxGeometry relative="1" as="geometry">
                        <mxPoint x="231" y="869.5" as="sourcePoint"/>
                    </mxGeometry>
                </mxCell>
                <mxCell id="268" style="edgeStyle=orthogonalEdgeStyle;rounded=0;orthogonalLoop=1;jettySize=auto;html=1;entryX=0;entryY=0.5;entryDx=0;entryDy=0;" parent="1" edge="1">
                    <mxGeometry relative="1" as="geometry">
                        <mxPoint x="580" y="869.5" as="sourcePoint"/>
                    </mxGeometry>
                </mxCell>
                <mxCell id="275" style="edgeStyle=orthogonalEdgeStyle;rounded=0;orthogonalLoop=1;jettySize=auto;html=1;entryX=0;entryY=0.5;entryDx=0;entryDy=0;" parent="1" edge="1">
                    <mxGeometry relative="1" as="geometry">
                        <mxPoint x="289.5" y="1029.5" as="targetPoint"/>
                    </mxGeometry>
                </mxCell>
                <mxCell id="282" style="edgeStyle=orthogonalEdgeStyle;rounded=0;orthogonalLoop=1;jettySize=auto;html=1;entryX=0;entryY=0.5;entryDx=0;entryDy=0;" parent="1" edge="1">
                    <mxGeometry relative="1" as="geometry">
                        <mxPoint x="460" y="1029.5" as="targetPoint"/>
                    </mxGeometry>
                </mxCell>
                <mxCell id="322" style="edgeStyle=orthogonalEdgeStyle;rounded=0;orthogonalLoop=1;jettySize=auto;html=1;entryX=0;entryY=0.5;entryDx=0;entryDy=0;" edge="1" parent="1" source="300" target="G4ZIIX9ekKNboTHv59yJ-2">
                    <mxGeometry relative="1" as="geometry">
                        <Array as="points">
                            <mxPoint x="100" y="820"/>
                            <mxPoint x="100" y="357"/>
                        </Array>
                    </mxGeometry>
                </mxCell>
                <mxCell id="300" value="Esperar 1 seg" style="whiteSpace=wrap;html=1;rounded=0;" parent="1" vertex="1">
                    <mxGeometry x="149.25" y="800" width="120" height="40" as="geometry"/>
                </mxCell>
                <mxCell id="314" style="edgeStyle=orthogonalEdgeStyle;rounded=0;orthogonalLoop=1;jettySize=auto;html=1;entryX=0.5;entryY=0;entryDx=0;entryDy=0;" edge="1" parent="1" source="305" target="154">
                    <mxGeometry relative="1" as="geometry"/>
                </mxCell>
                <mxCell id="305" value="Lectura análoga" style="whiteSpace=wrap;html=1;rounded=0;" vertex="1" parent="1">
                    <mxGeometry x="149.25" y="437" width="120" height="40" as="geometry"/>
                </mxCell>
                <mxCell id="309" style="edgeStyle=orthogonalEdgeStyle;rounded=0;orthogonalLoop=1;jettySize=auto;html=1;entryX=0;entryY=0.5;entryDx=0;entryDy=0;" edge="1" parent="1" source="306" target="307">
                    <mxGeometry relative="1" as="geometry"/>
                </mxCell>
                <mxCell id="312" style="edgeStyle=orthogonalEdgeStyle;rounded=0;orthogonalLoop=1;jettySize=auto;html=1;entryX=0.5;entryY=0;entryDx=0;entryDy=0;" edge="1" parent="1" source="306" target="308">
                    <mxGeometry relative="1" as="geometry"/>
                </mxCell>
                <mxCell id="306" value="Iterador es &lt;br&gt;menor &lt;br&gt;a vector" style="rhombus;whiteSpace=wrap;html=1;" vertex="1" parent="1">
                    <mxGeometry x="355.75" y="637" width="114" height="95" as="geometry"/>
                </mxCell>
                <mxCell id="317" style="edgeStyle=orthogonalEdgeStyle;rounded=0;orthogonalLoop=1;jettySize=auto;html=1;entryX=0.5;entryY=0;entryDx=0;entryDy=0;" edge="1" parent="1" source="307" target="316">
                    <mxGeometry relative="1" as="geometry"/>
                </mxCell>
                <mxCell id="307" value="Encender LED posición iterador" style="whiteSpace=wrap;html=1;rounded=0;" vertex="1" parent="1">
                    <mxGeometry x="535.75" y="664.5" width="120" height="40" as="geometry"/>
                </mxCell>
                <mxCell id="318" style="edgeStyle=orthogonalEdgeStyle;rounded=0;orthogonalLoop=1;jettySize=auto;html=1;entryX=0;entryY=0.5;entryDx=0;entryDy=0;" edge="1" parent="1" source="308" target="316">
                    <mxGeometry relative="1" as="geometry"/>
                </mxCell>
                <mxCell id="308" value="Apagar LED &lt;br&gt;posición iterador" style="whiteSpace=wrap;html=1;rounded=0;" vertex="1" parent="1">
                    <mxGeometry x="352.75" y="800" width="120" height="40" as="geometry"/>
                </mxCell>
                <mxCell id="310" value="Si" style="text;html=1;strokeColor=none;fillColor=none;align=center;verticalAlign=middle;whiteSpace=wrap;rounded=0;" vertex="1" parent="1">
                    <mxGeometry x="469.75" y="657" width="40" height="20" as="geometry"/>
                </mxCell>
                <mxCell id="311" value="No" style="text;html=1;strokeColor=none;fillColor=none;align=center;verticalAlign=middle;whiteSpace=wrap;rounded=0;" vertex="1" parent="1">
                    <mxGeometry x="415.75" y="732" width="40" height="20" as="geometry"/>
                </mxCell>
                <mxCell id="320" style="edgeStyle=orthogonalEdgeStyle;rounded=0;orthogonalLoop=1;jettySize=auto;html=1;entryX=0.5;entryY=0;entryDx=0;entryDy=0;" edge="1" parent="1" source="316" target="156">
                    <mxGeometry relative="1" as="geometry">
                        <mxPoint x="205.75" y="637" as="targetPoint"/>
                        <Array as="points">
                            <mxPoint x="685.75" y="820"/>
                            <mxPoint x="685.75" y="597"/>
                            <mxPoint x="209.75" y="597"/>
                            <mxPoint x="209.75" y="637"/>
                            <mxPoint x="209.75" y="637"/>
                        </Array>
                    </mxGeometry>
                </mxCell>
                <mxCell id="316" value="" style="ellipse;whiteSpace=wrap;html=1;aspect=fixed;" vertex="1" parent="1">
                    <mxGeometry x="590.75" y="815" width="10" height="10" as="geometry"/>
                </mxCell>
            </root>
        </mxGraphModel>
    </diagram>
</mxfile>
